<?xml version="1.0" standalone="no"?>
<!DOCTYPE svg PUBLIC "-//W3C//DTD SVG 20010904//EN"
 "http://www.w3.org/TR/2001/REC-SVG-20010904/DTD/svg10.dtd">
<svg version="1.0" xmlns="http://www.w3.org/2000/svg"
 width="96.000000pt" height="96.000000pt" viewBox="0 0 96.000000 96.000000"
 preserveAspectRatio="xMidYMid meet">
<metadata>
Created by potrace 1.14, written by Peter Selinger 2001-2017
</metadata>
<g transform="translate(0.000000,96.000000) scale(0.100000,-0.100000)"
fill="#000000" stroke="none">
<path d="M345 861 c-81 -21 -166 -87 -203 -156 -63 -120 -40 -278 54 -369 63
-61 127 -89 209 -90 39 -1 81 1 94 4 22 4 26 0 38 -39 7 -24 18 -49 24 -57 16
-19 45 -18 67 4 48 46 47 46 97 -7 59 -63 79 -68 116 -31 16 16 29 35 29 42 0
8 -25 39 -55 70 l-55 56 30 32 c17 18 28 40 25 47 -3 8 -5 18 -5 23 0 5 -17
14 -37 20 -21 6 -43 13 -50 15 -9 3 -9 15 1 52 37 144 -36 300 -171 363 -50
23 -158 34 -208 21z m164 -38 c99 -31 186 -140 193 -238 4 -60 -11 -135 -28
-142 -23 -8 -24 -1 -10 47 33 112 -15 224 -124 288 -60 36 -173 38 -235 5
-145 -77 -184 -268 -79 -392 58 -69 179 -109 252 -83 24 8 32 7 36 -3 8 -21
-12 -29 -82 -31 -291 -11 -406 364 -161 522 72 45 153 55 238 27z m-103 -76
c1 -9 -1 -17 -5 -17 -14 0 -43 -63 -50 -108 -5 -39 -10 -48 -29 -50 -22 -3
-23 -1 -17 40 8 55 30 107 57 136 24 25 40 25 44 -1z m72 0 c26 -28 48 -78 57
-134 6 -41 5 -43 -17 -43 -20 0 -24 5 -26 35 -3 41 -18 83 -37 105 -7 8 -16
25 -19 38 -10 30 14 29 42 -1z m-178 -39 c-10 -24 -21 -64 -25 -90 -7 -46 -8
-48 -41 -48 -39 0 -43 15 -19 73 15 36 78 107 95 107 5 0 1 -19 -10 -42z m273
8 c36 -34 67 -93 67 -127 0 -27 -70 -28 -71 -1 -2 40 -11 80 -29 120 -23 51
-14 53 33 8z m-302 -193 c2 -41 11 -81 29 -120 23 -52 12 -54 -35 -8 -36 37
-65 93 -65 126 0 27 70 28 71 2z m80 -35 c7 -43 36 -108 49 -108 3 0 6 -9 6
-20 0 -26 -17 -25 -44 3 -27 28 -49 80 -57 135 -6 41 -5 43 17 40 19 -2 24
-11 29 -50z m185 21 c-3 -17 -16 -39 -27 -48 -16 -12 -22 -28 -21 -52 1 -34
-21 -69 -44 -69 -17 0 -13 18 13 60 12 19 24 53 28 75 10 60 13 65 36 65 19 0
21 -4 15 -31z m104 11 c0 -10 -5 -30 -12 -44 -9 -21 -16 -24 -37 -19 -34 8
-33 6 -26 47 7 33 10 36 41 36 27 0 34 -4 34 -20z m13 -111 c66 -17 125 -33
130 -36 5 -3 -8 -23 -29 -44 l-38 -39 61 -63 c51 -51 60 -65 52 -79 -16 -29
-34 -21 -94 37 -31 30 -59 55 -63 55 -4 0 -22 -16 -41 -35 -51 -53 -44 -62
-90 122 -21 83 -25 113 -15 113 3 0 60 -14 127 -31z"/>
<path d="M564 388 c-8 -12 25 -146 38 -154 6 -4 37 20 69 52 46 46 56 61 46
70 -18 17 -146 44 -153 32z"/>
</g>
</svg>
